<svg width="52" height="36" viewBox="0 0 52 36" fill="none" xmlns="http://www.w3.org/2000/svg">
<path d="M15.6032 28.2857H31.2018C35.5077 28.2857 39.0011 24.8304 39.0011 20.5714H41.6009C47.3367 20.5714 52 15.9589 52 10.2857C52 4.6125 47.3367 0 41.6009 0H9.75369C8.67316 0 7.80386 0.859821 7.80386 1.92857V20.5714C7.80386 24.8304 11.2973 28.2857 15.6032 28.2857ZM41.6009 5.14286C44.4688 5.14286 46.8005 7.44911 46.8005 10.2857C46.8005 13.1223 44.4688 15.4286 41.6009 15.4286H39.0011V5.14286H41.6009ZM45.4762 36H3.92858C0.0614129 36 -1.02724 30.8571 1.00383 30.8571H48.3928C50.4239 30.8571 49.3515 36 45.4762 36Z" fill="#967259" fill-opacity="0.46"/>
</svg>
