<svg width="29" height="26" viewBox="0 0 29 26" fill="none" xmlns="http://www.w3.org/2000/svg">
<path d="M27.8423 21.6162L22.4333 16.748C22.1891 16.5283 21.8582 16.4062 21.511 16.4062H20.6266C22.124 14.6826 23.0138 12.5146 23.0138 10.1562C23.0138 4.5459 17.9628 0 11.7291 0C5.49533 0 0.444336 4.5459 0.444336 10.1562C0.444336 15.7666 5.49533 20.3125 11.7291 20.3125C14.3495 20.3125 16.7584 19.5117 18.6735 18.1641V18.96C18.6735 19.2725 18.8091 19.5703 19.0533 19.79L24.4623 24.6582C24.9723 25.1172 25.797 25.1172 26.3015 24.6582L27.8369 23.2764C28.3469 22.8174 28.3469 22.0752 27.8423 21.6162ZM11.7291 16.4062C7.89334 16.4062 4.78461 13.6133 4.78461 10.1562C4.78461 6.7041 7.88791 3.90625 11.7291 3.90625C15.5648 3.90625 18.6735 6.69922 18.6735 10.1562C18.6735 13.6084 15.5702 16.4062 11.7291 16.4062Z" fill="white"/>
</svg>
